<!DOCTYPE svg PUBLIC "-//W3C//DTD SVG 1.1//EN" "http://www.w3.org/Graphics/SVG/1.1/DTD/svg11.dtd">
<!-- Uploaded to: SVG Repo, www.svgrepo.com, Transformed by: SVG Repo Mixer Tools -->
<svg width="230px" height="230px" viewBox="-66.56 -66.56 645.12 645.12" id="Layer_1" version="1.1" xml:space="preserve" xmlns="http://www.w3.org/2000/svg" xmlns:xlink="http://www.w3.org/1999/xlink" fill="#ffffff" transform="rotate(0)" stroke="#ffffff" stroke-width="0.00512">
<g id="SVGRepo_bgCarrier" stroke-width="0" transform="translate(0,0), scale(1)">
<path transform="translate(-66.56, -66.56), scale(20.16)" d="M16,31.212037397282465C18.388182471306077,31.595572995034043,20.570332097612887,29.907649818574786,22.760040746900977,28.880181521142113C25.03244464118885,27.81391046215788,27.93367647688805,27.268144361305275,29.119749673369654,25.055909337039104C30.319027262764983,22.819045798643646,28.6188126508565,20.087132852309626,28.830400868562208,17.55789271899744C29.03209514967491,15.14692070939656,31.282018736639763,12.78966046345073,30.33204915893498,10.564570708958147C29.37281128802295,8.317772065316829,26.38167870064038,7.851116645649893,24.209187934755942,6.733742352851301C22.464262391789628,5.836277113792192,20.665615573703636,5.2465172395797195,18.8014538531691,4.634054926037548C16.7985607670156,3.9760130191522123,14.896567733084064,2.867680610088902,12.791474873010218,2.9825018461251442C10.53412481536596,3.1056278747679382,8.1224352625249,3.7051128228865333,6.523928480477855,5.303726400154499C4.9355298298934915,6.892231170641949,4.767042828187487,9.355768348416465,4.236032636188183,11.538515666598869C3.755380932081379,13.514261582451848,3.579173643310602,15.477983742462813,3.5541420809711326,17.511200751430952C3.5260884554159344,19.789888268754364,2.74917852639703,22.377879635803286,4.0798095430044,24.227913393645224C5.413500659962139,26.082201741136664,8.320206106778503,25.72300539371428,10.290953115649163,26.877680022396262C12.382882473696244,28.1033562476344,13.60612266209099,30.8275872194714,16,31.212037397282465" fill="#ffffff" strokewidth="0"/>
</g>
<g id="SVGRepo_tracerCarrier" stroke-linecap="round" stroke-linejoin="round" stroke="#CCCCCC" stroke-width="3.072"/>
<g id="SVGRepo_iconCarrier"> <style type="text/css"> .st0{fill:#3B4652;} .st1{fill:#2B79C2;} </style> <g> <polygon class="st1" points="242,367.1 239.7,370.1 214.9,397.1 245.3,472.6 284.6,472.6 262.8,367.1 "/> <polygon class="st1" points="359.5,402.1 344.2,367.1 318.6,367.1 295.4,411.4 342.4,472.6 370.6,455.5 353.4,410.1 "/> <path class="st0" d="M428.5,267.7c16.1,0,29.1-13,29.1-29.1c0-16.1-13-29.1-29.1-29.1c-16.1,0-29.1,13-29.1,29.1H227.6V172 c5.4-1.9,10.8-5.3,15.6-10.1c12.6-12.6,15.7-29.9,7-38.6c-8.7-8.7-26-5.6-38.6,7c-5.4,5.4-9,11.6-10.8,17.7h-26.3 c1.2-4,1.6-8.1,1.9-11.8c0.1-1.4,0.2-2.7,0.4-4c0.8-6.6,6.2-20.1,15.3-28c0,0,0,0,0,0c0,0,0,0,0,0c6.4-5.6,14.1-9.9,22.8-12.7 c9.3-3,18.9-4.6,28.7-6.1l0,0c0,0,0,0,0.1,0l3.5-0.5c4.8-0.7,9.7-1.5,14.6-2.3c12.5-2.2,28.6-6.1,42.5-15.6 c14.4-10,16.9-28.4,6.5-46.8c-1.9-3.4-6.2-4.5-9.5-2.6c-3.4,1.9-4.5,6.2-2.6,9.5c2.6,4.5,10,19.9-2.3,28.4 c-11.6,8-25.8,11.4-36.9,13.4c-1.8,0.3-3.7,0.6-5.6,0.9c1.5-4.4,2.7-9.2,3.3-14.3c0.4-3.8-2.3-7.3-6.2-7.8 c-3.9-0.4-7.3,2.3-7.8,6.2c-0.8,6.7-3,12.9-5.4,18.4c-8.9,1.4-18.2,3.1-27.2,6c-7.4,2.4-14.1,5.6-20.2,9.7 c-5.4-11.2-13.3-21.3-22.8-29.1c-3-2.4-7.4-2-9.8,1.1c-2.4,3-2,7.4,1.1,9.8c8.9,7.2,16,16.8,20.4,27.5 c-10.2,10.9-15.5,25.8-16.4,33.3c-0.2,1.5-0.3,3-0.4,4.4c-0.3,3.9-0.7,7.5-1.9,10.3c-0.4,0.9-0.6,1.8-0.6,2.7h-10l-57.2,53.9 c-4-4.3-9.8-7-16.2-7c-12.3,0-22.3,10-22.3,22.3c0,12.3,10,22.3,22.3,22.3c0,15.3,12.4,27.8,27.8,27.8h49.3 c7.7,0,13.9,6.2,13.9,13.9V324L122,405.2l53.8,90.3l34.7-25.2l-25.2-61.8l23.8-25.8l19.9-21.6l6.2-8h118.2l15.9,36.3l44.7,102h43.6 l-37.6-141L428.5,267.7z"/> </g> </g>
</svg>