<?xml version="1.0" ?>
<!-- Uploaded to: SVG Repo, www.svgrepo.com, Generator: SVG Repo Mixer Tools -->
<svg width="800px" height="800px" viewBox="0 0 512 512" id="Layer_1" version="1.1" xml:space="preserve" xmlns="http://www.w3.org/2000/svg" xmlns:xlink="http://www.w3.org/1999/xlink">
<style type="text/css">
	.st0{fill:#E9EDF3;}
	.st1{fill:#6BB0EF;}
</style>
<g>
<polygon class="st1" points="242,367.1 239.7,370.1 214.9,397.1 245.3,472.6 284.6,472.6 262.8,367.1  "/>
<polygon class="st1" points="359.5,402.1 344.2,367.1 318.6,367.1 295.4,411.4 342.4,472.6 370.6,455.5 353.4,410.1  "/>
<path class="st0" d="M428.5,267.7c16.1,0,29.1-13,29.1-29.1c0-16.1-13-29.1-29.1-29.1c-16.1,0-29.1,13-29.1,29.1H227.6V172   c5.4-1.9,10.8-5.3,15.6-10.1c12.6-12.6,15.7-29.9,7-38.6c-8.7-8.7-26-5.6-38.6,7c-5.4,5.4-9,11.6-10.8,17.7h-26.3   c1.2-4,1.6-8.1,1.9-11.8c0.1-1.4,0.2-2.7,0.4-4c0.8-6.6,6.2-20.1,15.3-28c0,0,0,0,0,0c0,0,0,0,0,0c6.4-5.6,14.1-9.9,22.8-12.7   c9.3-3,18.9-4.6,28.7-6.1l0,0c0,0,0,0,0.1,0l3.5-0.5c4.8-0.7,9.7-1.5,14.6-2.3c12.5-2.2,28.6-6.1,42.5-15.6   c14.4-10,16.9-28.4,6.5-46.8c-1.9-3.4-6.2-4.5-9.5-2.6c-3.4,1.9-4.5,6.2-2.6,9.5c2.6,4.5,10,19.9-2.3,28.4   c-11.6,8-25.8,11.4-36.9,13.4c-1.8,0.3-3.7,0.6-5.6,0.9c1.5-4.4,2.7-9.2,3.3-14.3c0.4-3.8-2.3-7.3-6.2-7.8   c-3.9-0.4-7.3,2.3-7.8,6.2c-0.8,6.7-3,12.9-5.4,18.4c-8.9,1.4-18.2,3.1-27.2,6c-7.4,2.4-14.1,5.6-20.2,9.7   c-5.4-11.2-13.3-21.3-22.8-29.1c-3-2.4-7.4-2-9.8,1.1c-2.4,3-2,7.4,1.1,9.8c8.9,7.2,16,16.8,20.4,27.5   c-10.2,10.9-15.5,25.8-16.4,33.3c-0.2,1.5-0.3,3-0.4,4.4c-0.3,3.9-0.7,7.5-1.9,10.3c-0.4,0.9-0.6,1.8-0.6,2.7h-10l-57.2,53.9   c-4-4.3-9.8-7-16.2-7c-12.3,0-22.3,10-22.3,22.3c0,12.3,10,22.3,22.3,22.3c0,15.3,12.4,27.8,27.8,27.8h49.3   c7.7,0,13.9,6.2,13.9,13.9V324L122,405.2l53.8,90.3l34.7-25.2l-25.2-61.8l23.8-25.8l19.9-21.6l6.2-8h118.2l15.9,36.3l44.7,102h43.6   l-37.6-141L428.5,267.7z"/>
</g>
</svg>